<svg width="293" height="130" viewBox="0 0 293 130" fill="none" xmlns="http://www.w3.org/2000/svg">
<rect y="123" width="13" height="7" rx="2" fill="black" fill-opacity="0.1"/>
<rect x="20" y="121" width="13" height="9" rx="2" fill="black" fill-opacity="0.15"/>
<rect x="40" y="118" width="13" height="12" rx="2" fill="black" fill-opacity="0.2"/>
<rect x="60" y="115" width="13" height="15" rx="2" fill="black" fill-opacity="0.3"/>
<rect x="80" y="111" width="13" height="19" rx="2" fill="black" fill-opacity="0.35"/>
<rect x="100" y="106" width="13" height="24" rx="2" fill="black" fill-opacity="0.4"/>
<rect x="120" y="98" width="13" height="32" rx="2" fill="black" fill-opacity="0.5"/>
<rect x="140" y="91" width="13" height="39" rx="2" fill="black" fill-opacity="0.55"/>
<rect x="160" y="80" width="13" height="50" rx="2" fill="black" fill-opacity="0.6"/>
<rect x="180" y="73" width="13" height="57" rx="2" fill="black" fill-opacity="0.65"/>
<rect x="200" y="60" width="13" height="70" rx="2" fill="black" fill-opacity="0.7"/>
<rect x="220" y="47" width="13" height="83" rx="2" fill="black" fill-opacity="0.75"/>
<rect x="240" y="35" width="13" height="95" rx="2" fill="black" fill-opacity="0.8"/>
<rect x="260" y="20" width="13" height="110" rx="2" fill="black" fill-opacity="0.9"/>
<rect x="280" width="13" height="130" rx="2" fill="black"/>
</svg>
