<svg width="16" height="18" viewBox="0 0 16 18" fill="none" xmlns="http://www.w3.org/2000/svg">
<path d="M1.57506 3.15H3.15013V5.5125H11.0255V3.15H12.6005V7.0875H14.1756V3.15C14.1756 2.28375 13.4668 1.575 12.6005 1.575H9.30863C8.97787 0.6615 8.11158 0 7.08779 0C6.064 0 5.19771 0.6615 4.86695 1.575H1.57506C0.708779 1.575 0 2.28375 0 3.15V14.175C0 15.0413 0.708779 15.75 1.57506 15.75H5.51273V14.175H1.57506V3.15ZM7.08779 1.575C7.52093 1.575 7.87532 1.92938 7.87532 2.3625C7.87532 2.79563 7.52093 3.15 7.08779 3.15C6.65465 3.15 6.30026 2.79563 6.30026 2.3625C6.30026 1.92938 6.65465 1.575 7.08779 1.575Z" fill="#4F46E5"/>
<path d="M13.6242 14.0966C13.9392 13.5453 14.1754 12.9153 14.1754 12.2066C14.1754 10.2378 12.6004 8.66284 10.6315 8.66284C8.66271 8.66284 7.08765 10.2378 7.08765 12.2066C7.08765 14.1753 8.66271 15.7503 10.6315 15.7503C11.3403 15.7503 11.9703 15.5141 12.5216 15.1991L14.648 17.3253L15.7505 16.2228L13.6242 14.0966ZM10.6315 14.1753C9.529 14.1753 8.66271 13.3091 8.66271 12.2066C8.66271 11.1041 9.529 10.2378 10.6315 10.2378C11.7341 10.2378 12.6004 11.1041 12.6004 12.2066C12.6004 13.3091 11.7341 14.1753 10.6315 14.1753Z" fill="#4F46E5"/>
</svg>
