<svg width="14" height="14" viewBox="0 0 14 14" fill="none" xmlns="http://www.w3.org/2000/svg">
<path d="M7 0C3.26667 0 0 3.00222 0 7C0 8.64889 0.575555 10.1656 1.53222 11.3633L0 12.9033L1.09667 14L2.62889 12.4678C3.83444 13.4244 5.35111 14 7 14C8.78889 14 10.5856 13.3156 11.9467 11.9467C13.3156 10.5856 14 8.78889 14 7V0H7ZM9.97889 7.20222L5.96556 10.8033C5.84111 10.92 5.64667 10.9122 5.53 10.7956C5.42111 10.6867 5.40556 10.5156 5.49889 10.3911L7.39667 7.80111L4.24667 7.49C3.90444 7.45889 3.75667 7.03111 4.01333 6.79778L8.02667 3.19667C8.15111 3.08 8.34556 3.08778 8.46222 3.20444C8.57111 3.31333 8.58667 3.48444 8.49333 3.60889L6.59556 6.19889L9.74556 6.51C10.0956 6.54111 10.2356 6.96889 9.97889 7.20222Z" fill="#4F46E5"/>
</svg>
